<svg width="66" height="65" viewBox="0 0 66 65" fill="none" xmlns="http://www.w3.org/2000/svg">
<path d="M6.6 19.5H7.54286C11.1729 19.5 14.1429 22.425 14.1429 26V58.5C14.1429 62.075 11.1729 65 7.54286 65H6.6C2.97 65 0 62.075 0 58.5V26C0 22.425 2.97 19.5 6.6 19.5V19.5ZM33 0C36.63 0 39.6 2.925 39.6 6.5V58.5C39.6 62.075 36.63 65 33 65C29.37 65 26.4 62.075 26.4 58.5V6.5C26.4 2.925 29.37 0 33 0ZM59.4 37.1429C63.03 37.1429 66 40.0679 66 43.6429V58.5C66 62.075 63.03 65 59.4 65C55.77 65 52.8 62.075 52.8 58.5V43.6429C52.8 40.0679 55.77 37.1429 59.4 37.1429V37.1429Z" fill="#317FE5"/>
</svg>
